<?xml version="1.0" encoding="utf-8" ?><svg xmlns="http://www.w3.org/2000/svg" xmlns:xlink="http://www.w3.org/1999/xlink" width="2587" height="800" viewBox="0 0 2587 800"><path fill="#171818" d="M185.875 13.3758C159.385 13.2131 130.566 13.0361 107.758 14.4318C109.659 45.3562 108.989 79.5034 108.34 112.556C108.089 125.33 107.842 137.94 107.747 150.138L107.132 366.498L107.575 596.673C107.666 608.717 107.825 621.14 107.986 633.769C108.545 677.633 109.135 723.98 107.048 765.579L215.504 765.652C215.446 759.973 215.356 754.369 215.267 748.819C214.76 717.222 214.281 687.369 219.795 655.285C239.158 542.585 385.585 505.899 462.919 585.049C505.234 628.35 504.404 687.762 503.61 744.612C503.513 751.613 503.415 758.575 503.399 765.464L613.964 765.667C614.006 760.55 614.07 755.266 614.135 749.859C614.609 710.318 615.162 664.194 608.041 628.385C590.29 561.271 559.193 521.025 500.738 484.693C598.896 419.865 613.677 350.735 613.62 238.866L499.996 239.925C506.526 408.779 442.297 429.197 295.198 449.698C273.156 452.767 234.847 477.673 216.423 491.353C215.066 332.061 214.633 172.764 215.129 13.4662C206.051 13.4997 196.138 13.4388 185.875 13.3758Z"/><path fill="#171818" d="M1007.83 193.251C1000.84 193.234 991.56 193.212 985.656 193.688C908.146 203.588 844.48 240.026 805.598 309.304C789.511 337.964 774.934 367.759 759.301 396.722L700.849 505.121C698.471 509.587 696.09 513.99 693.733 518.348C670.622 561.08 649.822 599.538 657 651.68C662.725 691.341 684.003 727.09 716.132 751.026C759.157 783.402 794.853 783.112 842.197 782.727C848.333 782.678 854.665 782.626 861.234 782.644C865.24 782.655 869.496 782.724 873.904 782.796C888.513 783.034 904.802 783.3 919.267 781.55C936.945 779.412 943.84 775.407 958.007 760.168C977.12 739.61 976.143 701.745 975.214 665.731C974.185 625.872 973.216 588.282 999.607 578.94C1004.86 577.078 1022.92 581.297 1027.68 585.884C1032.01 590.062 1034.01 592.604 1036.87 598.469C1041.19 618.331 1037.93 709.456 1033.01 732.842C1029.29 750.46 1022.04 766.724 1013.48 782.425C1054.72 782.712 1095.96 782.753 1137.2 782.543C1142.8 782.53 1148.84 782.585 1155.15 782.644C1184.44 782.914 1219.59 783.237 1243.51 776.998C1269.68 770.076 1293.57 756.395 1312.8 737.329C1362.62 688.421 1371.57 615.452 1340.04 554.622C1334.05 543.079 1328.14 531.533 1322.06 520.026C1307.85 493.132 1293.49 466.312 1279 439.566C1256.72 398.114 1226.7 336.972 1202.23 298.505C1193.97 285.27 1184.29 272.984 1173.35 261.862C1130.46 218.502 1072.18 193.841 1011.2 193.256C1010.16 193.256 1009.03 193.254 1007.83 193.251ZM1004.01 500.432C892.71 505.646 891.119 603.064 895.578 687.191C886.098 686.805 874.1 687.296 861.631 687.806C840.655 688.665 818.343 689.578 804.433 686.461C724.635 668.568 763.152 599.224 785.632 558.753C787.389 555.59 789.048 552.604 790.545 549.832L837.725 462.487C851.938 436.157 868.017 407.647 881.164 380.868C907.686 326.851 938.719 301.917 998.981 293.327C999.99 293.289 1001 293.261 1002.01 293.248C1049.2 292.504 1093.28 313.072 1118.67 353.452C1129.43 370.556 1139.18 390.576 1148.72 408.487L1193.62 492.348C1212.47 527.818 1232.43 563.272 1250.18 598.81C1261.62 620.835 1262.77 650.851 1243.62 669.251C1221.8 690.217 1176.66 688.499 1141.02 687.143C1133.12 686.842 1125.69 686.56 1119.08 686.546C1119.09 678.75 1119.29 670.814 1119.49 662.82C1120.59 619.031 1121.73 573.486 1092.57 539.462C1070.95 514.236 1045.93 504.41 1013.88 500.301C1010.59 500.211 1007.3 500.254 1004.01 500.432Z"/><path fill="#171818" d="M2150.93 235.238L2148.98 235.28C1793.81 256.533 1802.94 768.851 2168.8 765.161C2195.32 765.197 2222.52 765.054 2249.96 764.91C2309.47 764.597 2370.07 764.279 2427.2 765.772C2427.12 748.444 2427.51 724.184 2427.96 696.275C2429.5 600.751 2431.72 462.476 2418.03 413.069C2406.97 373.147 2384.18 336.941 2354.7 308.052C2299 253.469 2227.17 233.996 2150.93 235.238ZM2219.73 675.255C2203.99 675.395 2188.45 675.532 2173.46 675.557C1952.9 680.588 1925.4 370.109 2142.93 328.209C2188.95 322.134 2241.61 336.487 2275.21 369.342C2323.61 416.668 2323.01 475.929 2322.38 537.556C2322.31 544.451 2322.24 551.375 2322.24 558.316C2322.06 597.383 2322.26 636.443 2322.84 675.505C2290.09 674.632 2254.44 674.948 2219.73 675.255Z"/><path fill="#171818" d="M1567.98 240.222C1499.3 240.086 1430.64 239.951 1362.07 240.656L1362.39 337.108C1402.23 337.269 1442.92 337.029 1483.77 336.788C1550.21 336.396 1617.05 336.002 1681.35 337.327L1362.87 709.534L1363.03 765.297L1824.94 765.594L1852.47 765.876L1852 670.802C1822.39 670.754 1792.06 670.542 1761.44 670.329C1685.57 669.8 1607.93 669.258 1535.06 671.162C1628.02 556.996 1726.44 446.781 1820.62 333.574L1821.34 239.158C1736.96 240.554 1652.45 240.388 1567.98 240.222Z"/></svg>