<svg xmlns="http://www.w3.org/2000/svg" width="2587" height="800" viewBox="0 0 2587 800"><path fill="#fff" d="M185.875 13.376c-26.49-.163-55.309-.34-78.117 1.056 1.901 30.924 1.231 65.071.582 98.124-.251 12.774-.498 25.384-.593 37.582l-.615 216.36.443 230.175c.091 12.044.25 24.467.411 37.096.559 43.864 1.149 90.211-.938 131.81l108.456.073c-.058-5.679-.148-11.283-.237-16.833-.507-31.597-.986-61.45 4.528-93.534 19.363-112.7 165.79-149.386 243.124-70.236 42.315 43.301 41.485 102.713 40.691 159.563-.097 7.001-.195 13.963-.211 20.852l110.565.203c.042-5.117.106-10.401.171-15.808.474-39.541 1.027-85.665-6.094-121.474-17.751-67.114-48.848-107.36-107.303-143.692 98.158-64.828 112.939-133.958 112.882-245.827l-113.624 1.059c6.53 168.854-57.699 189.272-204.798 209.773-22.042 3.069-60.351 27.975-78.775 41.655a41083 41083 0 0 1-1.294-477.887c-9.078.034-18.991-.027-29.254-.09"/><path fill="#fff" d="M1007.83 193.251c-6.99-.017-16.27-.039-22.174.437-77.51 9.9-141.176 46.338-180.058 115.616-16.087 28.66-30.664 58.455-46.297 87.418l-58.452 108.399a2301 2301 0 0 1-7.116 13.227C670.622 561.08 649.822 599.538 657 651.68a150.74 150.74 0 0 0 59.132 99.346c43.025 32.376 78.721 32.086 126.065 31.701 6.136-.049 12.468-.101 19.037-.083 4.006.011 8.262.08 12.67.152 14.609.238 30.898.504 45.363-1.246 17.678-2.138 24.573-6.143 38.74-21.382 19.113-20.558 18.136-58.423 17.207-94.437-1.029-39.859-1.998-77.449 24.393-86.791 5.253-1.862 23.313 2.357 28.073 6.944 4.33 4.178 6.33 6.72 9.19 12.585 4.32 19.862 1.06 110.987-3.86 134.373-3.72 17.618-10.97 33.882-19.53 49.583q61.86.432 123.72.118c5.6-.013 11.64.042 17.95.101 29.29.27 64.44.593 88.36-5.646a154.54 154.54 0 0 0 69.29-39.669c49.82-48.908 58.77-121.877 27.24-182.707-5.99-11.543-11.9-23.089-17.98-34.596a8765 8765 0 0 0-43.06-80.46c-22.28-41.452-52.3-102.594-76.77-141.061a213.3 213.3 0 0 0-28.88-36.643 231.2 231.2 0 0 0-162.15-68.606c-1.04 0-2.17-.002-3.37-.005m-3.82 307.181c-111.3 5.214-112.891 102.632-108.432 186.759-9.48-.386-21.478.105-33.947.615-20.976.859-43.288 1.772-57.198-1.345-79.798-17.893-41.281-87.237-18.801-127.708 1.757-3.163 3.416-6.149 4.913-8.921l47.18-87.345c14.213-26.33 30.292-54.84 43.439-81.619 26.522-54.017 57.555-78.951 117.817-87.541q1.514-.058 3.029-.079c47.19-.744 91.27 19.824 116.66 60.204 10.76 17.104 20.51 37.124 30.05 55.035l44.9 83.861c18.85 35.47 38.81 70.924 56.56 106.462 11.44 22.025 12.59 52.041-6.56 70.441-21.82 20.966-66.96 19.248-102.6 17.892-7.9-.301-15.33-.583-21.94-.597.01-7.796.21-15.732.41-23.726 1.1-43.789 2.24-89.334-26.92-123.358-21.62-25.226-46.64-35.052-78.69-39.161q-4.935-.135-9.87.131"/><path fill="#fff" d="m2150.93 235.238-1.95.042c-355.17 21.253-346.04 533.571 19.82 529.881 26.52.036 53.72-.107 81.16-.251 59.51-.313 120.11-.631 177.24.862-.08-17.328.31-41.588.76-69.497 1.54-95.524 3.76-233.799-9.93-283.206-11.06-39.922-33.85-76.128-63.33-105.017-55.7-54.583-127.53-74.056-203.77-72.814m68.8 440.017c-15.74.14-31.28.277-46.27.302-220.56 5.031-248.06-305.448-30.53-347.348 46.02-6.075 98.68 8.278 132.28 41.133 48.4 47.326 47.8 106.587 47.17 168.214-.07 6.895-.14 13.819-.14 20.76-.18 39.067.02 78.127.6 117.189-32.75-.873-68.4-.557-103.11-.25"/><path fill="#fff" d="M1567.98 240.222c-68.68-.136-137.34-.271-205.91.434l.32 96.452c39.84.161 80.53-.079 121.38-.32 66.44-.392 133.28-.786 197.58.539l-318.48 372.207.16 55.763 461.91.297 27.53.282-.47-95.074c-29.61-.048-59.94-.26-90.56-.473-75.87-.529-153.51-1.071-226.38.833 92.96-114.166 191.38-224.381 285.56-337.588l.72-94.416c-84.38 1.396-168.89 1.23-253.36 1.064"/></svg>