<svg xmlns="http://www.w3.org/2000/svg" xmlns:xlink="http://www.w3.org/1999/xlink" width="160" zoomAndPan="magnify" viewBox="0 0 120 37.5" height="50" preserveAspectRatio="xMidYMid meet" version="1.0"><defs><clipPath id="cc5301188d"><path d="M 5 0.386719 L 29 0.386719 L 29 36 L 5 36 Z M 5 0.386719 " clip-rule="nonzero"/></clipPath></defs><g clip-path="url(#cc5301188d)"><path fill="#ffffff" d="M 9.308594 0.992188 C 8.09375 0.984375 6.777344 0.976562 5.734375 1.039062 C 5.820312 2.441406 5.789062 3.992188 5.757812 5.488281 C 5.746094 6.066406 5.734375 6.640625 5.730469 7.191406 L 5.703125 17 L 5.722656 27.433594 C 5.726562 27.980469 5.734375 28.542969 5.742188 29.117188 C 5.769531 31.105469 5.796875 33.207031 5.699219 35.09375 L 10.664062 35.09375 C 10.660156 34.839844 10.65625 34.585938 10.652344 34.332031 C 10.628906 32.898438 10.609375 31.546875 10.859375 30.09375 C 11.746094 24.984375 18.449219 23.320312 21.988281 26.910156 C 23.921875 28.871094 23.886719 31.566406 23.847656 34.140625 C 23.84375 34.460938 23.839844 34.773438 23.839844 35.085938 L 28.898438 35.097656 C 28.902344 34.863281 28.90625 34.625 28.90625 34.378906 C 28.929688 32.585938 28.953125 30.496094 28.628906 28.871094 C 27.816406 25.832031 26.394531 24.007812 23.71875 22.359375 C 28.210938 19.421875 28.886719 16.285156 28.882812 11.214844 L 23.683594 11.261719 C 23.984375 18.917969 21.042969 19.84375 14.3125 20.773438 C 13.300781 20.910156 11.550781 22.039062 10.707031 22.660156 C 10.644531 15.441406 10.625 8.21875 10.648438 0.996094 C 10.230469 1 9.777344 0.996094 9.308594 0.992188 Z M 9.308594 0.992188 " fill-opacity="1" fill-rule="nonzero"/></g><path fill="#ffffff" d="M 46.925781 9.148438 C 46.605469 9.144531 46.179688 9.144531 45.910156 9.167969 C 42.363281 9.617188 39.449219 11.265625 37.671875 14.40625 C 36.933594 15.707031 36.265625 17.058594 35.550781 18.371094 L 32.875 23.285156 C 32.765625 23.488281 32.660156 23.6875 32.550781 23.882812 C 31.492188 25.820312 30.539062 27.566406 30.871094 29.929688 C 31.132812 31.726562 32.105469 33.347656 33.574219 34.433594 C 35.542969 35.898438 37.179688 35.886719 39.34375 35.871094 C 39.625 35.867188 39.914062 35.863281 40.214844 35.867188 C 40.398438 35.867188 40.59375 35.871094 40.796875 35.871094 C 41.464844 35.882812 42.210938 35.894531 42.871094 35.816406 C 43.683594 35.71875 43.996094 35.539062 44.644531 34.847656 C 45.519531 33.914062 45.476562 32.199219 45.433594 30.566406 C 45.386719 28.757812 45.339844 27.054688 46.550781 26.632812 C 46.789062 26.546875 47.617188 26.738281 47.835938 26.945312 C 48.03125 27.136719 48.125 27.25 48.253906 27.515625 C 48.453125 28.417969 48.304688 32.546875 48.078125 33.609375 C 47.90625 34.40625 47.574219 35.144531 47.183594 35.855469 C 49.070312 35.867188 50.960938 35.871094 52.847656 35.859375 C 53.101562 35.859375 53.378906 35.863281 53.667969 35.867188 C 55.007812 35.878906 56.617188 35.894531 57.710938 35.609375 C 58.910156 35.296875 60.003906 34.675781 60.882812 33.8125 C 63.164062 31.59375 63.574219 28.285156 62.128906 25.527344 C 61.855469 25.003906 61.585938 24.480469 61.308594 23.960938 C 60.65625 22.742188 60 21.527344 59.335938 20.3125 C 58.316406 18.433594 56.941406 15.664062 55.824219 13.917969 C 55.445312 13.320312 55 12.761719 54.5 12.257812 C 52.539062 10.292969 49.871094 9.171875 47.078125 9.148438 C 47.03125 9.148438 46.980469 9.148438 46.925781 9.148438 Z M 46.75 23.074219 C 41.65625 23.308594 41.585938 27.726562 41.789062 31.539062 C 41.355469 31.519531 40.804688 31.542969 40.234375 31.566406 C 39.273438 31.605469 38.253906 31.648438 37.617188 31.503906 C 33.964844 30.695312 35.726562 27.550781 36.757812 25.714844 C 36.835938 25.574219 36.914062 25.4375 36.980469 25.3125 L 39.140625 21.351562 C 39.792969 20.160156 40.527344 18.867188 41.128906 17.652344 C 42.34375 15.203125 43.761719 14.074219 46.519531 13.683594 C 46.566406 13.683594 46.613281 13.679688 46.660156 13.679688 C 48.820312 13.644531 50.835938 14.578125 52 16.410156 C 52.492188 17.183594 52.9375 18.09375 53.375 18.902344 L 55.429688 22.707031 C 56.292969 24.3125 57.203125 25.921875 58.015625 27.53125 C 58.539062 28.53125 58.59375 29.890625 57.71875 30.726562 C 56.71875 31.675781 54.652344 31.597656 53.023438 31.535156 C 52.660156 31.523438 52.320312 31.511719 52.015625 31.507812 C 52.019531 31.15625 52.027344 30.796875 52.035156 30.433594 C 52.085938 28.449219 52.136719 26.382812 50.804688 24.839844 C 49.816406 23.699219 48.667969 23.253906 47.203125 23.066406 C 47.050781 23.0625 46.902344 23.0625 46.75 23.074219 Z M 46.75 23.074219 " fill-opacity="1" fill-rule="nonzero"/><path fill="#ffffff" d="M 99.242188 11.050781 L 99.152344 11.050781 C 82.898438 12.015625 83.316406 35.242188 100.058594 35.074219 C 101.273438 35.074219 102.519531 35.070312 103.773438 35.0625 C 106.496094 35.046875 109.269531 35.035156 111.886719 35.101562 C 111.882812 34.316406 111.898438 33.214844 111.921875 31.949219 C 111.992188 27.621094 112.09375 21.351562 111.464844 19.113281 C 110.960938 17.300781 109.917969 15.660156 108.566406 14.351562 C 106.019531 11.875 102.730469 10.992188 99.242188 11.050781 Z M 102.390625 30.996094 C 101.671875 31.003906 100.957031 31.011719 100.273438 31.011719 C 90.179688 31.238281 88.921875 17.164062 98.875 15.265625 C 100.980469 14.988281 103.390625 15.640625 104.929688 17.128906 C 107.144531 19.273438 107.117188 21.960938 107.089844 24.753906 C 107.085938 25.066406 107.082031 25.382812 107.082031 25.695312 C 107.074219 27.46875 107.082031 29.238281 107.109375 31.007812 C 105.609375 30.96875 103.980469 30.984375 102.390625 30.996094 Z M 102.390625 30.996094 " fill-opacity="1" fill-rule="nonzero"/><path fill="#ffffff" d="M 72.5625 11.277344 C 69.417969 11.269531 66.277344 11.265625 63.136719 11.296875 L 63.152344 15.667969 C 64.976562 15.675781 66.839844 15.664062 68.707031 15.652344 C 71.75 15.636719 74.808594 15.617188 77.75 15.679688 L 63.175781 32.550781 L 63.183594 35.078125 L 84.320312 35.09375 L 85.582031 35.105469 L 85.5625 30.796875 C 84.207031 30.792969 82.816406 30.785156 81.417969 30.773438 C 77.945312 30.75 74.390625 30.726562 71.054688 30.8125 C 75.308594 25.636719 79.8125 20.640625 84.125 15.507812 L 84.15625 11.226562 C 80.296875 11.292969 76.429688 11.285156 72.5625 11.277344 Z M 72.5625 11.277344 " fill-opacity="1" fill-rule="nonzero"/></svg>